<svg id="图层_1" data-name="图层 1" xmlns="http://www.w3.org/2000/svg" viewBox="0 0 171 26.81"><defs><style>.cls-1{fill:#0e499e;}</style></defs><title>未标题-1</title><path class="cls-1" d="M382.16,270.61a2.08,2.08,0,0,0-.48-.3,2.17,2.17,0,0,0,1.15-.48,1.54,1.54,0,0,0,.47-1.06A1.09,1.09,0,0,0,383,268a1.27,1.27,0,0,0-.67-.57,4.64,4.64,0,0,0-1.44-.19h-1.82v5.47H380v-2.3h.48a1.4,1.4,0,0,1,.77.19,5.88,5.88,0,0,1,.86,1.24l.48.86h1.15l-.67-1.06a5.53,5.53,0,0,0-.86-1.05m-1.06-.85H380V268h1a2.43,2.43,0,0,1,1,.1c.1.1.3.2.4.3a4.59,4.59,0,0,1,.1.51.87.87,0,0,1-.3.61,2.74,2.74,0,0,1-1.11.2" transform="translate(-215.74 -264.73)"/><path class="cls-1" d="M386,267.45a5.54,5.54,0,0,0-2-2,5.22,5.22,0,0,0-5.24,0,5.54,5.54,0,0,0-2,2,5.93,5.93,0,0,0-.7,2.61,6,6,0,0,0,.7,2.62,4.86,4.86,0,0,0,2,2,5.22,5.22,0,0,0,5.24,0,4.89,4.89,0,0,0,2-2,6.09,6.09,0,0,0,.7-2.62,6,6,0,0,0-.7-2.61m-.8,4.83a4.1,4.1,0,0,1-1.62,1.61,4.33,4.33,0,0,1-4.43,0,4.1,4.1,0,0,1-1.61-1.61,4.36,4.36,0,0,1,0-4.42,4,4,0,0,1,1.61-1.61,4.37,4.37,0,0,1,4.43,0,4,4,0,0,1,1.62,1.61,4.36,4.36,0,0,1,0,4.42" transform="translate(-215.74 -264.73)"/><path class="cls-1" d="M256,283.58h0v-6.87h0l-16.45-7.5a9.15,9.15,0,0,0-8.44-.11h0L215.74,276l7.42,3.47h0l13.92,6.3-3.57,1.64-.63-.29-13.14-5.91v-3.34l-4-1.87v6.8l.33.13h0l16.44,7.51.05,0,1,.45a9.15,9.15,0,0,0,6.7,0l.53-.24h0l.28-.13h0l14.77-6.83.21-.09Zm-15.29.47-.27.13,1.23-.57-13.85-6.35,2.79-1.3,14,6.3Zm-5.6-10.2,3.43-1.6h0l13.74,6.35v3.11l-3.14-1.56Z" transform="translate(-215.74 -264.73)"/><path class="cls-1" d="M264.35,270.06h20.07a1.67,1.67,0,0,1,1.67,1.67v3.16h-17.9v3.5h16.9v4.22h-16.9v3.45h17.9v4.85H264.35a2.67,2.67,0,0,1-2.67-2.67V272.73a2.67,2.67,0,0,1,2.67-2.67" transform="translate(-215.74 -264.73)"/><path class="cls-1" d="M320.64,270.06H340.7a1.67,1.67,0,0,1,1.67,1.67v3.16h-17.9v3.5h16.9v4.22h-16.9v3.45h17.9v4.85H320.64a2.67,2.67,0,0,1-2.67-2.67V272.73a2.67,2.67,0,0,1,2.67-2.67" transform="translate(-215.74 -264.73)"/><path class="cls-1" d="M295,270.06V290.9h-4.95a1.55,1.55,0,0,1-1.55-1.55V271.62a1.55,1.55,0,0,1,1.55-1.55Zm11.52,0H313a.34.34,0,0,1,.22.6l-10.83,9.45,12.36,10.19a.34.34,0,0,1-.21.61h-7.2L295,280.11Z" transform="translate(-215.74 -264.73)"/><path class="cls-1" d="M351,290.9H346.4a1.57,1.57,0,0,1-1.57-1.57V271.63a1.57,1.57,0,0,1,1.57-1.57h8.95l11,13.65.11.27V270.06h5.36a1.41,1.41,0,0,1,1.41,1.41V290.9h-9.55l-12.56-15.62-.08-.19Z" transform="translate(-215.74 -264.73)"/></svg>